<svg id="Layer_1" data-name="Layer 1" xmlns="http://www.w3.org/2000/svg" viewBox="0 0 197.16 76.06"><defs><style>.cls-1{fill:#16456f;}.cls-2{fill:#b13135;}</style></defs><path class="cls-1" d="M219.18,316.85a1.74,1.74,0,0,0-.4-.34,4.68,4.68,0,0,0-.55-.29,5.86,5.86,0,0,0-.67-.21,3.84,3.84,0,0,0-.76-.08,2.36,2.36,0,0,0-1.5.39,1.27,1.27,0,0,0-.47,1,1.15,1.15,0,0,0,.13.59,1.11,1.11,0,0,0,.43.4,3.07,3.07,0,0,0,.72.29c.29.09.63.17,1,.26a10.8,10.8,0,0,1,1.23.34,4,4,0,0,1,.93.47,1.85,1.85,0,0,1,.59.69,2.49,2.49,0,0,1,0,2.09,2.25,2.25,0,0,1-.67.77,3,3,0,0,1-1,.44,5.59,5.59,0,0,1-1.26.14,5.75,5.75,0,0,1-1.91-.31,5.34,5.34,0,0,1-1.65-.92l.53-.94a2.86,2.86,0,0,0,.51.42,4.06,4.06,0,0,0,.72.38,5.1,5.1,0,0,0,.86.27,4.34,4.34,0,0,0,1,.1,2.72,2.72,0,0,0,1.46-.33,1.11,1.11,0,0,0,.52-1,1.13,1.13,0,0,0-.17-.62,1.41,1.41,0,0,0-.49-.44,3.7,3.7,0,0,0-.79-.32c-.32-.1-.68-.19-1.08-.29a10.37,10.37,0,0,1-1.17-.35,3,3,0,0,1-.84-.44,1.55,1.55,0,0,1-.51-.63,2,2,0,0,1-.18-.89,2.44,2.44,0,0,1,.24-1.1,2.26,2.26,0,0,1,.65-.82,3,3,0,0,1,1-.5,4.95,4.95,0,0,1,2.86.11,4.38,4.38,0,0,1,1.26.73Z" transform="translate(-207.41 -250.47)"/><path class="cls-1" d="M223,323.88a2.15,2.15,0,0,1-.85-.16,2,2,0,0,1-.68-.42,1.84,1.84,0,0,1-.46-.64,1.86,1.86,0,0,1-.17-.79,1.7,1.7,0,0,1,.2-.81,1.83,1.83,0,0,1,.56-.62,3,3,0,0,1,.86-.41,4.22,4.22,0,0,1,1.09-.14,6.19,6.19,0,0,1,1,.08,4.52,4.52,0,0,1,.85.24v-.52a1.55,1.55,0,0,0-1.7-1.69,3.57,3.57,0,0,0-2,.75l-.36-.7a4.43,4.43,0,0,1,2.5-.84,2.77,2.77,0,0,1,2,.68,2.52,2.52,0,0,1,.7,1.91v2.62c0,.26.12.39.35.4v.93l-.28,0h-.24a.69.69,0,0,1-.51-.19.78.78,0,0,1-.23-.46l0-.45a2.93,2.93,0,0,1-1.09.88A3.37,3.37,0,0,1,223,323.88Zm.28-.82a2.74,2.74,0,0,0,1.08-.21,1.88,1.88,0,0,0,.76-.57.72.72,0,0,0,.23-.48v-.95a4.35,4.35,0,0,0-1.64-.31,2.31,2.31,0,0,0-1.32.34,1,1,0,0,0-.51.9,1.25,1.25,0,0,0,.1.51,1.31,1.31,0,0,0,.3.41,1.68,1.68,0,0,0,.45.27A1.63,1.63,0,0,0,223.3,323.06Z" transform="translate(-207.41 -250.47)"/><path class="cls-1" d="M228.49,323.75v-5.58h-.88v-.84h.88v-.14a2.91,2.91,0,0,1,.53-1.87,1.73,1.73,0,0,1,1.44-.68,2.78,2.78,0,0,1,.75.11,2.19,2.19,0,0,1,.66.28l-.27.8a1.36,1.36,0,0,0-.42-.19,1.8,1.8,0,0,0-.5-.08,1,1,0,0,0-.83.41,2.06,2.06,0,0,0-.28,1.18v.18h1.71v.84h-1.71v5.58Z" transform="translate(-207.41 -250.47)"/><path class="cls-1" d="M235.06,323.88a3.26,3.26,0,0,1-1.33-.27,3,3,0,0,1-1-.72,3.24,3.24,0,0,1-.67-1.06,3.52,3.52,0,0,1-.24-1.29,3.43,3.43,0,0,1,.24-1.28,3.24,3.24,0,0,1,.67-1.06,3.38,3.38,0,0,1,1.05-.72,3.19,3.19,0,0,1,1.33-.27,3,3,0,0,1,1.32.28,3.14,3.14,0,0,1,1,.72,3.24,3.24,0,0,1,.64,1,3.49,3.49,0,0,1,.23,1.24,2,2,0,0,1,0,.25c0,.07,0,.13,0,.17h-5.34a2.65,2.65,0,0,0,.22.87,2.44,2.44,0,0,0,.48.68,2.15,2.15,0,0,0,.68.44,1.92,1.92,0,0,0,.79.16,1.89,1.89,0,0,0,.58-.08,2.44,2.44,0,0,0,.53-.21,2,2,0,0,0,.44-.33,1.51,1.51,0,0,0,.29-.45l.93.26a2.2,2.2,0,0,1-.44.65,2.75,2.75,0,0,1-.64.52,3.36,3.36,0,0,1-.8.33A3.22,3.22,0,0,1,235.06,323.88Zm2.21-3.77a2.27,2.27,0,0,0-.23-.84,2.34,2.34,0,0,0-.48-.66,2.14,2.14,0,0,0-.67-.43,2.29,2.29,0,0,0-1.63,0,2.14,2.14,0,0,0-.67.43,2.4,2.4,0,0,0-.47.66,2.31,2.31,0,0,0-.21.84Z" transform="translate(-207.41 -250.47)"/><path class="cls-1" d="M242.76,323.43a1.29,1.29,0,0,1-.26.12c-.1.05-.23.09-.36.14l-.44.11a2.74,2.74,0,0,1-.5,0,1.65,1.65,0,0,1-1-.33,1.19,1.19,0,0,1-.43-1v-4.33h-.87v-.84h.87v-2.15h1.09v2.15h1.44v.84h-1.44v4a.63.63,0,0,0,.23.51.78.78,0,0,0,.49.16,1.59,1.59,0,0,0,.59-.1,2.08,2.08,0,0,0,.36-.17Z" transform="translate(-207.41 -250.47)"/><path class="cls-1" d="M244.07,325.5l.32,0h.24a.5.5,0,0,0,.27-.07.67.67,0,0,0,.23-.26,4,4,0,0,0,.27-.55l.37-.92L243,317.33h1.12l2.2,5.45,2-5.45h1l-3.13,8.11a2,2,0,0,1-.57.76,1.71,1.71,0,0,1-1.11.33l-.22,0a2,2,0,0,1-.29-.05Z" transform="translate(-207.41 -250.47)"/><path class="cls-1" d="M249.89,323.75v-1.38h.91v1.38Z" transform="translate(-207.41 -250.47)"/><path class="cls-1" d="M254.45,319.32a4.57,4.57,0,0,1,.28-1.57,4.17,4.17,0,0,1,.81-1.4,4.11,4.11,0,0,1,1.31-1,4,4,0,0,1,1.76-.38,3.72,3.72,0,0,1,2,.53,3.23,3.23,0,0,1,1.24,1.38l-.87.57a2.46,2.46,0,0,0-.48-.71,2.36,2.36,0,0,0-.6-.45,2.48,2.48,0,0,0-.67-.25,3.21,3.21,0,0,0-.68-.07,2.73,2.73,0,0,0-1.29.3,3,3,0,0,0-.94.79,3.54,3.54,0,0,0-.57,1.09,4,4,0,0,0-.19,1.23,3.58,3.58,0,0,0,.23,1.31,3.51,3.51,0,0,0,.63,1.1,3.11,3.11,0,0,0,1,.77,2.6,2.6,0,0,0,1.21.28,3,3,0,0,0,.71-.09,2.54,2.54,0,0,0,.69-.27,3.13,3.13,0,0,0,.62-.48,2.29,2.29,0,0,0,.48-.7l.92.51a2.78,2.78,0,0,1-.58.86,3.79,3.79,0,0,1-.85.64,4.4,4.4,0,0,1-1,.39,4.12,4.12,0,0,1-1,.14,3.41,3.41,0,0,1-1.65-.4,4.33,4.33,0,0,1-1.3-1,4.69,4.69,0,0,1-.85-1.45A4.62,4.62,0,0,1,254.45,319.32Z" transform="translate(-207.41 -250.47)"/><path class="cls-1" d="M266.05,323.88a3.15,3.15,0,0,1-1.32-.27,3.32,3.32,0,0,1-1-.73,3.39,3.39,0,0,1-.66-1.06,3.58,3.58,0,0,1-.23-1.27,3.43,3.43,0,0,1,.24-1.28,3.35,3.35,0,0,1,.67-1.06,3.14,3.14,0,0,1,1-.72,3,3,0,0,1,1.31-.28,3,3,0,0,1,1.32.28,3.29,3.29,0,0,1,1,.72,3.51,3.51,0,0,1,.66,1.06,3.43,3.43,0,0,1,.24,1.28,3.58,3.58,0,0,1-.23,1.27,3.24,3.24,0,0,1-.67,1.06,3.32,3.32,0,0,1-1,.73A3.15,3.15,0,0,1,266.05,323.88Zm-2.13-3.32a2.42,2.42,0,0,0,.17.94,2.34,2.34,0,0,0,.45.75,2.13,2.13,0,0,0,.68.51,2,2,0,0,0,1.66,0,2.29,2.29,0,0,0,.68-.51,2.42,2.42,0,0,0,.47-.77,2.81,2.81,0,0,0,0-1.87,2.27,2.27,0,0,0-.47-.76,2,2,0,0,0-.68-.51,1.91,1.91,0,0,0-1.66,0,2.16,2.16,0,0,0-.68.52,2.51,2.51,0,0,0-.45.76A2.45,2.45,0,0,0,263.92,320.56Z" transform="translate(-207.41 -250.47)"/><path class="cls-1" d="M280.31,323.75h-1.08v-3.59a2.65,2.65,0,0,0-.33-1.49,1.1,1.1,0,0,0-1-.48,1.72,1.72,0,0,0-1.18.47,2.66,2.66,0,0,0-.75,1.23v3.86h-1.08v-3.59a2.74,2.74,0,0,0-.32-1.5,1.08,1.08,0,0,0-1-.47,1.77,1.77,0,0,0-1.19.46,2.58,2.58,0,0,0-.75,1.22v3.88h-1.08v-6.42h1v1.37a3,3,0,0,1,1-1.1,2.62,2.62,0,0,1,1.41-.39,1.76,1.76,0,0,1,1.87,1.57,2.71,2.71,0,0,1,2.46-1.57,1.91,1.91,0,0,1,.93.21,1.51,1.51,0,0,1,.59.56,2.52,2.52,0,0,1,.32.86,5.19,5.19,0,0,1,.1,1.07Z" transform="translate(-207.41 -250.47)"/><path class="cls-1" d="M285.46,323.88a2.5,2.5,0,0,1-1.41-.4,3,3,0,0,1-1-1v3.89H282v-9.05h1v1.2a2.91,2.91,0,0,1,1-.95,2.72,2.72,0,0,1,2.57-.09,3,3,0,0,1,1,.73,3.43,3.43,0,0,1,.63,1.06,3.6,3.6,0,0,1,.23,1.26,4,4,0,0,1-.21,1.3,3.3,3.3,0,0,1-.59,1.06,2.74,2.74,0,0,1-.91.71A2.52,2.52,0,0,1,285.46,323.88Zm-.33-.94a1.92,1.92,0,0,0,.87-.2,2.3,2.3,0,0,0,.66-.54,2.51,2.51,0,0,0,.42-.77,2.73,2.73,0,0,0,.15-.89,2.48,2.48,0,0,0-.64-1.68,2.2,2.2,0,0,0-.69-.52,2,2,0,0,0-.87-.19,1.7,1.7,0,0,0-.61.12,2.55,2.55,0,0,0-.59.31,1.72,1.72,0,0,0-.48.45,1.32,1.32,0,0,0-.27.56v1.84a2.7,2.7,0,0,0,.35.59,2.18,2.18,0,0,0,.48.48,1.94,1.94,0,0,0,.58.32A1.69,1.69,0,0,0,285.13,322.94Z" transform="translate(-207.41 -250.47)"/><path class="cls-1" d="M289.7,314.76h1.08v7.33a.76.76,0,0,0,.19.56.7.7,0,0,0,.54.21,1.48,1.48,0,0,0,.32-.05l.34-.1.17.87a3,3,0,0,1-.64.19,3.21,3.21,0,0,1-.65.07,1.34,1.34,0,0,1-1-.36,1.32,1.32,0,0,1-.36-1Z" transform="translate(-207.41 -250.47)"/><path class="cls-1" d="M293.19,316.12v-1.36h1.09v1.36Zm0,7.63v-6.42h1.09v6.42Z" transform="translate(-207.41 -250.47)"/><path class="cls-1" d="M297.68,323.88a2.15,2.15,0,0,1-.85-.16,2.1,2.1,0,0,1-.69-.42,2,2,0,0,1-.45-.64,1.86,1.86,0,0,1-.17-.79,1.7,1.7,0,0,1,.2-.81,1.83,1.83,0,0,1,.56-.62,3,3,0,0,1,.86-.41,4.17,4.17,0,0,1,1.09-.14,6.19,6.19,0,0,1,.95.08,4.52,4.52,0,0,1,.85.24v-.52a1.55,1.55,0,0,0-1.7-1.69,3.63,3.63,0,0,0-2.05.75l-.35-.7a4.43,4.43,0,0,1,2.5-.84,2.74,2.74,0,0,1,2,.68,2.49,2.49,0,0,1,.71,1.91v2.62c0,.26.12.39.35.4v.93l-.29,0h-.23a.69.69,0,0,1-.51-.19.78.78,0,0,1-.23-.46l0-.45a2.93,2.93,0,0,1-1.09.88A3.37,3.37,0,0,1,297.68,323.88Zm.28-.82a2.77,2.77,0,0,0,1.08-.21,1.78,1.78,0,0,0,.75-.57.69.69,0,0,0,.24-.48v-.95a4.38,4.38,0,0,0-1.64-.31,2.31,2.31,0,0,0-1.32.34,1,1,0,0,0-.51.9,1.25,1.25,0,0,0,.1.51,1.31,1.31,0,0,0,.3.41,1.42,1.42,0,0,0,.45.27A1.63,1.63,0,0,0,298,323.06Z" transform="translate(-207.41 -250.47)"/><path class="cls-1" d="M308.43,323.75h-1.09v-3.59a2.75,2.75,0,0,0-.31-1.5,1.06,1.06,0,0,0-.95-.47,1.74,1.74,0,0,0-.67.13,2.45,2.45,0,0,0-.63.35,2.35,2.35,0,0,0-.85,1.2v3.88h-1.08v-6.42h1v1.37a2.88,2.88,0,0,1,1.11-1.08,3.14,3.14,0,0,1,1.57-.41,1.84,1.84,0,0,1,.92.21,1.51,1.51,0,0,1,.59.56,2.74,2.74,0,0,1,.32.86,6,6,0,0,1,.09,1.07Z" transform="translate(-207.41 -250.47)"/><path class="cls-1" d="M309.68,320.53a3.43,3.43,0,0,1,.24-1.28,3.12,3.12,0,0,1,.66-1.06,3.26,3.26,0,0,1,2.37-1,3.12,3.12,0,0,1,1.65.43,2.71,2.71,0,0,1,1.06,1.14l-1.06.33a1.88,1.88,0,0,0-.69-.71,2,2,0,0,0-1.82-.07,1.88,1.88,0,0,0-.68.5,2.34,2.34,0,0,0-.45.75,2.63,2.63,0,0,0-.17.95,2.75,2.75,0,0,0,.17,1,2.61,2.61,0,0,0,.47.77,2.38,2.38,0,0,0,.67.51,2,2,0,0,0,.84.18,2.23,2.23,0,0,0,.56-.08,2,2,0,0,0,.5-.21,1.82,1.82,0,0,0,.4-.32,1,1,0,0,0,.25-.39l1.06.32a2.31,2.31,0,0,1-.42.66,2.57,2.57,0,0,1-.62.5,3.29,3.29,0,0,1-.79.33,3.1,3.1,0,0,1-.92.13,3.24,3.24,0,0,1-3-2.07A3.43,3.43,0,0,1,309.68,320.53Z" transform="translate(-207.41 -250.47)"/><path class="cls-1" d="M319.72,323.88a3.23,3.23,0,0,1-1.33-.27,2.9,2.9,0,0,1-1-.72,3.24,3.24,0,0,1-.67-1.06,3.52,3.52,0,0,1-.24-1.29,3.43,3.43,0,0,1,.24-1.28,3.24,3.24,0,0,1,.67-1.06,3.34,3.34,0,0,1,1-.72,3.26,3.26,0,0,1,1.33-.27,3,3,0,0,1,1.33.28,3.16,3.16,0,0,1,1.66,1.76,3.49,3.49,0,0,1,.23,1.24,2,2,0,0,1,0,.25.72.72,0,0,1,0,.17h-5.33a2.65,2.65,0,0,0,.22.87,2.44,2.44,0,0,0,.48.68,2.11,2.11,0,0,0,.67.44,2,2,0,0,0,.8.16,1.89,1.89,0,0,0,.58-.08,2.44,2.44,0,0,0,.53-.21,1.76,1.76,0,0,0,.43-.33,1.2,1.2,0,0,0,.29-.45l.94.26a2.2,2.2,0,0,1-.44.65,3,3,0,0,1-.64.52,3.36,3.36,0,0,1-.8.33A3.22,3.22,0,0,1,319.72,323.88Zm2.21-3.77a2.27,2.27,0,0,0-.23-.84,2.34,2.34,0,0,0-.48-.66,2.22,2.22,0,0,0-2.3-.43,2.14,2.14,0,0,0-.67.43,2.4,2.4,0,0,0-.47.66,2.31,2.31,0,0,0-.21.84Z" transform="translate(-207.41 -250.47)"/><path class="cls-1" d="M324.07,323.75v-1.38H325v1.38Z" transform="translate(-207.41 -250.47)"/><path class="cls-1" d="M329.19,323.75V315h3.65a2.36,2.36,0,0,1,1.06.24,2.54,2.54,0,0,1,.84.64,3.2,3.2,0,0,1,.55.9,2.75,2.75,0,0,1,.19,1,3,3,0,0,1-.18,1,2.87,2.87,0,0,1-.52.9,2.68,2.68,0,0,1-.82.63,2.25,2.25,0,0,1-1,.23H330.3v3.14Zm1.11-4.12h2.55a1.38,1.38,0,0,0,.62-.14,1.53,1.53,0,0,0,.48-.4,1.88,1.88,0,0,0,.3-.58,2.05,2.05,0,0,0,.11-.7,1.88,1.88,0,0,0-.13-.72,2,2,0,0,0-.34-.58,1.55,1.55,0,0,0-.5-.38,1.46,1.46,0,0,0-.61-.13H330.3Z" transform="translate(-207.41 -250.47)"/><path class="cls-1" d="M339.41,323.88a3.26,3.26,0,0,1-1.33-.27,3,3,0,0,1-1-.72,3.24,3.24,0,0,1-.67-1.06,3.52,3.52,0,0,1-.24-1.29,3.43,3.43,0,0,1,.24-1.28,3.11,3.11,0,0,1,.68-1.06,3.26,3.26,0,0,1,2.37-1,3,3,0,0,1,1.32.28,3.14,3.14,0,0,1,1,.72,3.08,3.08,0,0,1,.64,1,3.49,3.49,0,0,1,.23,1.24,2,2,0,0,1,0,.25c0,.07,0,.13,0,.17h-5.34a2.43,2.43,0,0,0,.23.87,2.09,2.09,0,0,0,.48.68,2,2,0,0,0,.67.44,1.92,1.92,0,0,0,.79.16A1.89,1.89,0,0,0,340,323a2.44,2.44,0,0,0,.53-.21,2,2,0,0,0,.44-.33,1.51,1.51,0,0,0,.29-.45l.93.26a2,2,0,0,1-.44.65,2.75,2.75,0,0,1-.64.52,3.36,3.36,0,0,1-.8.33A3.22,3.22,0,0,1,339.41,323.88Zm2.21-3.77a2.27,2.27,0,0,0-.23-.84,2.34,2.34,0,0,0-.48-.66,2.14,2.14,0,0,0-.67-.43,2.17,2.17,0,0,0-2.3.43,2.4,2.4,0,0,0-.47.66,2.31,2.31,0,0,0-.21.84Z" transform="translate(-207.41 -250.47)"/><path class="cls-1" d="M347.25,318.27a2.86,2.86,0,0,0-1.44.42,2.18,2.18,0,0,0-.88,1.1v4h-1.08v-6.42h1v1.49a2.93,2.93,0,0,1,.87-1.08,2.11,2.11,0,0,1,1.16-.46h.36Z" transform="translate(-207.41 -250.47)"/><path class="cls-1" d="M348.66,323.75v-5.58h-.87v-.84h.87v-.14a3,3,0,0,1,.53-1.87,1.75,1.75,0,0,1,1.44-.68,2.67,2.67,0,0,1,.75.11,2.37,2.37,0,0,1,.67.28l-.27.8a1.55,1.55,0,0,0-.43-.19,1.69,1.69,0,0,0-.5-.08.94.94,0,0,0-.82.41,2.06,2.06,0,0,0-.28,1.18v.18h1.71v.84h-1.71v5.58Z" transform="translate(-207.41 -250.47)"/><path class="cls-1" d="M355.2,323.88a3.12,3.12,0,0,1-2.34-1,3.06,3.06,0,0,1-.66-1.06,3.38,3.38,0,0,1-.24-1.27,3.43,3.43,0,0,1,.24-1.28,3.53,3.53,0,0,1,.67-1.06,3.14,3.14,0,0,1,1-.72,3.23,3.23,0,0,1,2.63,0,3.18,3.18,0,0,1,1,.72,3.51,3.51,0,0,1,.66,1.06,3.43,3.43,0,0,1,.24,1.28,3.37,3.37,0,0,1-.23,1.27,3.24,3.24,0,0,1-.67,1.06,3.28,3.28,0,0,1-1,.73A3.19,3.19,0,0,1,355.2,323.88Zm-2.13-3.32a2.62,2.62,0,0,0,.17.94,2.34,2.34,0,0,0,.45.75,2.25,2.25,0,0,0,.68.51,2,2,0,0,0,.83.18,1.9,1.9,0,0,0,.83-.18,2.47,2.47,0,0,0,.69-.51,2.58,2.58,0,0,0,.46-.77,2.66,2.66,0,0,0,0-1.87,2.41,2.41,0,0,0-.46-.76,2.14,2.14,0,0,0-.69-.51,1.78,1.78,0,0,0-.83-.19,1.84,1.84,0,0,0-.83.19,2.28,2.28,0,0,0-.68.52,2.51,2.51,0,0,0-.45.76A2.66,2.66,0,0,0,353.07,320.56Z" transform="translate(-207.41 -250.47)"/><path class="cls-1" d="M363.17,318.27a2.82,2.82,0,0,0-1.43.42,2.13,2.13,0,0,0-.88,1.1v4h-1.09v-6.42h1v1.49a2.85,2.85,0,0,1,.88-1.08,2.09,2.09,0,0,1,1.15-.46h.36Z" transform="translate(-207.41 -250.47)"/><path class="cls-1" d="M373.93,323.75h-1.08v-3.59a2.65,2.65,0,0,0-.33-1.49,1.08,1.08,0,0,0-1-.48,1.74,1.74,0,0,0-1.19.47,2.66,2.66,0,0,0-.75,1.23v3.86h-1.08v-3.59a2.74,2.74,0,0,0-.32-1.5,1.06,1.06,0,0,0-1-.47,1.72,1.72,0,0,0-1.18.46,2.44,2.44,0,0,0-.75,1.22v3.88h-1.09v-6.42h1v1.37a2.93,2.93,0,0,1,1-1.1,2.63,2.63,0,0,1,1.42-.39,1.81,1.81,0,0,1,1.28.44,1.91,1.91,0,0,1,.59,1.13,2.69,2.69,0,0,1,2.45-1.57,1.88,1.88,0,0,1,.93.21,1.54,1.54,0,0,1,.6.56,3,3,0,0,1,.32.86,6,6,0,0,1,.09,1.07Z" transform="translate(-207.41 -250.47)"/><path class="cls-1" d="M377.27,323.88a2.18,2.18,0,0,1-.85-.16,2,2,0,0,1-.68-.42,2,2,0,0,1-.46-.64,1.86,1.86,0,0,1-.16-.79,1.7,1.7,0,0,1,.19-.81,1.94,1.94,0,0,1,.56-.62,3,3,0,0,1,.87-.41,4.11,4.11,0,0,1,1.09-.14,6.07,6.07,0,0,1,.94.08,4.31,4.31,0,0,1,.85.24v-.52a1.55,1.55,0,0,0-1.7-1.69,3.6,3.6,0,0,0-2,.75l-.36-.7a4.46,4.46,0,0,1,2.5-.84,2.75,2.75,0,0,1,2,.68,2.53,2.53,0,0,1,.71,1.91v2.62c0,.26.11.39.34.4v.93l-.28,0h-.23a.69.69,0,0,1-.52-.19.77.77,0,0,1-.22-.46l0-.45a2.93,2.93,0,0,1-1.09.88A3.37,3.37,0,0,1,377.27,323.88Zm.29-.82a2.72,2.72,0,0,0,1.07-.21,1.75,1.75,0,0,0,.76-.57.68.68,0,0,0,.23-.48v-.95a4.33,4.33,0,0,0-1.63-.31,2.32,2.32,0,0,0-1.33.34,1,1,0,0,0-.51.9,1.26,1.26,0,0,0,.11.51,1.28,1.28,0,0,0,.29.41,1.44,1.44,0,0,0,1,.36Z" transform="translate(-207.41 -250.47)"/><path class="cls-1" d="M388,323.75h-1.08v-3.59a2.85,2.85,0,0,0-.31-1.5,1.06,1.06,0,0,0-1-.47,1.72,1.72,0,0,0-.66.13,2.3,2.3,0,0,0-.63.35,2.38,2.38,0,0,0-.52.53,2.1,2.1,0,0,0-.33.67v3.88h-1.09v-6.42h1v1.37a2.79,2.79,0,0,1,1.1-1.08,3.17,3.17,0,0,1,1.57-.41,1.88,1.88,0,0,1,.93.21,1.58,1.58,0,0,1,.59.56,2.51,2.51,0,0,1,.31.86,6,6,0,0,1,.09,1.07Z" transform="translate(-207.41 -250.47)"/><path class="cls-1" d="M389.28,320.53a3.63,3.63,0,0,1,.23-1.28,3.14,3.14,0,0,1,.67-1.06,3.27,3.27,0,0,1,1-.71,3.19,3.19,0,0,1,1.33-.27,3.15,3.15,0,0,1,1.66.43,2.75,2.75,0,0,1,1.05,1.14l-1.06.33a1.75,1.75,0,0,0-.69-.71,1.91,1.91,0,0,0-1-.25,2,2,0,0,0-1.52.68,2.54,2.54,0,0,0-.45.75,2.63,2.63,0,0,0-.16.95,2.75,2.75,0,0,0,.17,1,2.81,2.81,0,0,0,.46.77,2.43,2.43,0,0,0,.68.51,2,2,0,0,0,.83.18,2.25,2.25,0,0,0,1.07-.29,2.08,2.08,0,0,0,.4-.32,1.15,1.15,0,0,0,.24-.39l1.06.32a2.28,2.28,0,0,1-.41.66,2.77,2.77,0,0,1-.62.5,3.36,3.36,0,0,1-.8.33,3,3,0,0,1-.91.13,3.19,3.19,0,0,1-1.33-.27,3.25,3.25,0,0,1-1-.73,3.18,3.18,0,0,1-.67-1.07A3.43,3.43,0,0,1,389.28,320.53Z" transform="translate(-207.41 -250.47)"/><path class="cls-1" d="M399.32,323.88a3.19,3.19,0,0,1-1.33-.27,2.94,2.94,0,0,1-1-.72,3.24,3.24,0,0,1-.67-1.06,3.52,3.52,0,0,1-.24-1.29,3.43,3.43,0,0,1,.24-1.28,3.27,3.27,0,0,1,.68-1.06,3.34,3.34,0,0,1,1-.72,3.19,3.19,0,0,1,1.33-.27,3,3,0,0,1,1.32.28,3.14,3.14,0,0,1,1,.72,3.27,3.27,0,0,1,.65,1,3.49,3.49,0,0,1,.22,1.24v.25c0,.07,0,.13,0,.17h-5.33a2.23,2.23,0,0,0,.22.87,2.19,2.19,0,0,0,1.15,1.12,1.92,1.92,0,0,0,.79.16,1.89,1.89,0,0,0,.58-.08,2.25,2.25,0,0,0,.53-.21,1.81,1.81,0,0,0,.44-.33,1.34,1.34,0,0,0,.29-.45l.93.26a2.16,2.16,0,0,1-.43.65,3.24,3.24,0,0,1-.64.52,3.44,3.44,0,0,1-.81.33A3.15,3.15,0,0,1,399.32,323.88Zm2.2-3.77a2.1,2.1,0,0,0-.23-.84,2,2,0,0,0-.48-.66,2,2,0,0,0-.67-.43,2.26,2.26,0,0,0-1.62,0,2,2,0,0,0-.67.43,2.21,2.21,0,0,0-.47.66,2.54,2.54,0,0,0-.22.84Z" transform="translate(-207.41 -250.47)"/><path class="cls-1" d="M403.66,323.75v-1.38h.92v1.38Z" transform="translate(-207.41 -250.47)"/><path class="cls-2" d="M250.77,256.94a34,34,0,0,1-.7,5.19H213.65a34,34,0,0,1-.7-5.19l18.91-6.47Zm-43.36,8.89c.23.8.49,1.63.79,2.48l33.94,0L240,272H209.67c.37.82.77,1.66,1.21,2.5H234l-2.16,3.7H220.19a40.16,40.16,0,0,0,11.67,11.66,42.24,42.24,0,0,0,17.31-24.06Z" transform="translate(-207.41 -250.47)"/><polygon class="cls-1" points="60.81 11.68 38.39 50.14 49.28 50.14 52.15 45.12 75.16 45.12 69.91 36.04 57.35 36.04 65.56 21.66 81.94 50.14 93.19 50.14 70.76 11.68 60.81 11.68"/><path class="cls-1" d="M402.53,281.54h0a7.31,7.31,0,0,0-3.67-2.36,28.57,28.57,0,0,0-6.13-1l-12.89-1.06a20.6,20.6,0,0,1-3.8-.54c-1.41-.46-2-1.55-2-3.75,0-2.64,1.53-3.44,2.19-3.67,1.49-.52,3.46-.85,8.63-.85a71.9,71.9,0,0,1,16.77,1.8v-6.89a131.61,131.61,0,0,0-17.94-1.06,67.89,67.89,0,0,0-11.29.77,12.78,12.78,0,0,0-6.83,3.22c-1.67,1.61-2.51,4-2.51,7.18a12.45,12.45,0,0,0,1.06,5.43,8,8,0,0,0,3.88,3.52,24.94,24.94,0,0,0,8.21,1.88l12,1a12.9,12.9,0,0,1,3.35.55,2.5,2.5,0,0,1,1.51,1.29,6.66,6.66,0,0,1,.35,2.51,7.26,7.26,0,0,1-.3,2.34,3,3,0,0,1-1.52,1.52,10,10,0,0,1-3.59.9,63.74,63.74,0,0,1-6.52.25,78.61,78.61,0,0,1-16.8-1.75v7.05c5.63.56,12.43.85,20.22.85a58.28,58.28,0,0,0,10.75-.8,11.39,11.39,0,0,0,6.39-3.37c1.56-1.7,2.35-4.3,2.35-7.72C404.41,285.48,403.78,283.07,402.53,281.54Z" transform="translate(-207.41 -250.47)"/><rect class="cls-1" x="136.89" y="11.68" width="10.9" height="38.47"/><polygon class="cls-1" points="85.47 18.61 101.8 18.61 101.8 50.14 112.7 50.14 112.7 18.61 129.02 18.61 129.02 11.68 85.47 11.68 85.47 18.61"/></svg>