<svg viewBox="0 0 280 105" xmlns="http://www.w3.org/2000/svg" data-testid="ThriveLogo" fill="white" class="kvxed3-0 sc-2jayz5-3 ejicAy cRqPdt" xmlns:xlink="http://www.w3.org/1999/xlink">
 <path d="M255.865 96.075v-5.24h21.432v5.24h-21.432zM239.02 51.722l12.992-36.207 27.989 10-2.879 8.017-18.762-6.705-2.21 6.156 17.002 6.075-2.654 7.397-17.001-6.075-2.374 6.62 18.814 6.724-2.877 8.017-28.04-10.02zM74.1 81.907h5.816V105h-5.022V89.857h-.067l-8 15.143h-2.049l-8.002-15.143h-.064V105h-5.059V81.907h5.852l8.231 16.1h.067l8.296-16.1zm26.638 0h4.727L115.91 105h-5.488l-1.52-3.562H97.299L95.78 105h-5.454l10.412-23.092zm2.348 5.907l-3.9 9.202h7.866l-3.901-9.202h-.065zm37.78 8.642l5.652 8.543h-5.751l-5.356-8.345h-4.099V105h-5.057V81.908h12.197c5.059 0 8.264 2.87 8.264 7.357 0 3.728-2.18 6.334-5.85 7.125v.066zm-2.91-4.256c2.314 0 3.703-1.055 3.703-3.002 0-1.946-1.19-2.87-3.768-2.87h-6.579V92.2h6.644zm34.74-10.292h6.91l-9.587 9.896L179.702 105h-6.147l-6.843-9.863h-.066l-3.505 3.762V105h-5.057V81.908h5.057v10.16h.065l9.488-10.16zm17.383 0h17.489v4.42h-12.43v4.85h11.238v4.19h-11.238v5.213h12.397V105h-17.456V81.908zm27.832 0h21.52v4.454H231.2V105h-5.059V86.362h-8.23v-4.454zM6.99 96.073v-5.238h21.431v5.238H6.99zM0 30.949l34.21-13.468 3.132 7.923-12.6 4.96 11.011 27.855-9.117 3.588-11.008-27.855L3.13 38.87 0 30.95zm53.612-19.328l9.578-2.08 3.067 14.071 15.928-3.458-3.067-14.07 9.578-2.08 8.195 37.59-9.578 2.08-3.22-14.768-15.927 3.458 3.219 14.768-9.578 2.081-8.195-37.592zM164.374 38.69L167.129.319l9.78.699-2.757 38.373-9.778-.701zm28.77-36.584l10.53 2.075 6.197 28.55.107.022 16.6-24.06 10.533 2.074-24.64 34.35-9.614-1.894-9.713-41.117zm-44.767 35.578l-10.887.571-8.754-12.306-6.38.335.673 12.732-9.789.514-2.025-38.413L131.889.031c8.523-.448 14.6 3.965 15.027 12.032.322 6.147-2.915 10.609-8.271 12.54l.003.055 9.729 13.026zm-16.398-20.27c3.3-.172 5.306-1.874 5.15-4.836-.162-3.074-2.104-4.347-5.624-4.163l-10.062.528.475 9 10.061-.528z">
 </path>
</svg>